<svg width="90" height="132" viewBox="0 0 90 132" fill="none" xmlns="http://www.w3.org/2000/svg">
<path d="M70.7292 92.4491C70.8268 96.3758 68.9566 98.6732 65.135 99.0642C64.4195 99.1457 63.6389 98.5265 62.2241 97.9889C65.1025 96.4247 68.5663 96.4247 67.9809 91.9929C65.6066 95.3982 63.1998 93.8992 61.0532 92.4328C57.6219 90.1192 54.3695 87.5449 51.0683 85.052C50.3202 84.4817 49.6535 83.7974 48.5314 82.7872C49.0843 87.496 51.5073 90.6895 53.8979 93.8504C56.1908 96.8972 58.5488 99.9115 61.0695 102.747C62.6794 104.555 61.411 105.761 60.4027 106.689C59.2806 107.732 57.8658 107.928 56.7437 106.184C55.6217 104.441 54.2394 102.861 52.8734 101.28C51.2959 99.4715 50.0275 97.6304 50.5804 95.0072C50.6942 94.4532 50.3202 93.5897 49.8811 93.1823C46.0595 89.663 44.3845 85.1986 43.669 80.164C43.1811 76.7587 42.2217 73.4186 40.9695 70.0133C40.5629 75.5856 40.1564 81.1416 39.7498 86.7139C36.1234 76.5469 36.6763 66.2006 37.3755 55.5611C36.7576 56.278 36.1071 56.9623 35.5542 57.7281C31.944 62.7302 29.586 68.3025 28.8054 74.3799C28.0573 80.1966 29.8624 85.5245 34.7573 88.7994C40.5467 92.6772 44.2219 98.3147 48.6289 103.382C49.995 104.946 51.2471 106.592 52.5481 108.205C52.4668 108.465 52.3692 108.71 52.2879 108.971C51.3447 108.71 50.1738 108.726 49.5071 108.14C46.1246 105.19 42.986 101.932 39.5384 99.0642C34.8874 95.2027 30.8219 90.9339 28.1386 85.3778C26.1547 88.4899 26.7401 97.2557 30.1714 101.231C34.2207 105.94 39.392 107.357 45.7505 106.885C38.3025 109.932 31.0008 105.288 27.7646 100.449C27.667 100.303 27.6183 100.14 27.5369 99.9929C22.4469 91.5856 22.4632 91.5856 24.7724 80.3921C25.4229 77.2638 25.992 74.1192 26.6263 70.8442C24.7561 70.1762 23.3738 70.3065 22.2355 72.1477C20.902 74.331 19.3083 76.3514 17.7959 78.5021C14.95 72.4084 19.4547 68.498 21.3899 63.5774C18.4464 65.5326 15.503 67.4878 12.1204 69.72C12.1204 68.2373 11.8765 66.999 12.1692 65.9237C12.8522 63.4145 13.828 61.0031 14.6085 58.5265C14.8525 57.7444 15.0151 56.8157 14.8525 56.0336C14.5598 54.6161 14.6736 53.5407 15.9908 52.6609C16.4299 52.3676 16.7064 51.5367 16.7226 50.9501C16.7877 47.8544 16.6576 44.7424 16.7714 41.6466C16.8852 38.5998 20.1702 35.0804 23.1624 34.3147C24.3658 34.0051 25.4229 33.1578 26.5937 32.7342C29.0818 31.8218 31.57 30.8279 34.1394 30.225C38.4651 29.2149 42.8234 29.0031 47.1979 30.3391C51.4911 31.6426 54.3044 34.331 56.0607 38.4206C56.6299 39.7566 57.6382 41.0927 58.7928 41.9562C62.7933 44.9705 67.0052 47.724 71.0056 50.7383C71.7537 51.2923 72.2903 52.5957 72.2903 53.557C72.2903 55.3656 73.2336 56.0336 74.6158 56.8646C79.3481 59.7322 84.0316 62.665 88.5525 65.8422C89.4794 66.4939 89.9998 68.3025 89.9998 69.5734C89.9836 71.6752 89.4957 73.7933 88.9753 75.8626C87.9996 79.7893 87.0889 83.7485 85.7391 87.5611C84.6008 90.7872 82.0639 92.4654 78.5025 92.4003C76.0306 92.4003 73.6238 92.4491 70.7292 92.4491ZM85.1374 79.7567C85.5277 79.7892 85.918 79.8218 86.3083 79.8544C86.4547 77.7037 86.601 75.553 86.7636 73.2393C85.2513 73.4186 84.4382 73.5163 83.4624 73.6304C83.5763 72.8646 83.6413 72.3269 83.7552 71.61C80.7141 72.2129 79.9823 70.2903 79.3969 68.1233C82.1127 68.8076 84.6821 69.4593 87.2678 70.1273C88.0321 68.5795 88.1297 68.4328 86.3408 67.2108C80.9418 63.496 75.4615 59.9114 69.8836 56.1803C70.9894 54.2902 70.2738 52.8727 68.2248 51.6018C65.509 49.9236 63.086 47.7566 60.3539 46.0947C58.6627 45.0682 56.6787 44.2536 54.7435 43.944C49.0355 43.0153 47.328 44.3839 46.9702 50.1355C46.8564 51.8137 47.4093 53.5245 47.7183 55.219C48.1085 57.4186 48.4988 59.6181 49.0355 61.7852C49.2144 62.5346 49.6697 63.3656 50.2551 63.8707C53.41 66.5754 56.5649 69.2964 59.8986 71.7729C61.8988 73.2556 62.2078 75.0805 62.2078 77.3453C60.419 77.0683 58.8253 76.8239 57.134 76.5632C55.6704 83.7485 60.0775 88.05 64.2406 92.9216C67.1678 89.3371 71.0544 89.5001 74.9899 89.8259C75.6729 89.8748 76.3721 89.8422 77.0714 89.8585C82.6493 89.9237 85.1537 86.5184 83.2836 80.4899C78.5025 81.777 73.6889 83.0805 68.7777 84.4165C68.1923 82.5591 68.8265 81.7607 70.5991 81.6141C72.5831 81.4512 74.5996 81.4023 76.5185 80.9461C79.462 80.2292 83.2022 81.2068 84.7309 76.9542C84.8772 78.111 85.0073 78.9257 85.1374 79.7567ZM39.2132 50.1517C38.1073 48.5713 37.1153 47.056 36.0095 45.6222C32.3831 40.946 28.8216 39.9684 23.26 42.0866C18.9017 43.7485 17.6983 45.9644 18.9343 50.5102C20.3165 55.5774 23.5527 59.4389 27.293 62.9583C26.3498 59.9114 25.0163 56.9949 24.252 53.9481C23.634 51.4878 23.5039 48.8483 23.569 46.3065C23.6015 45.3615 25.0651 43.553 25.4717 43.667C28.5127 44.4654 31.4399 45.6548 34.3996 46.7139C34.3345 46.9583 34.2532 47.2027 34.1882 47.4471C32.3505 47.5611 30.4967 47.6589 27.7809 47.8218C28.6428 49.3045 28.9843 50.8524 29.8299 51.2108C36.3998 53.9318 36.4323 53.8666 39.2132 50.1517ZM52.8083 40.7179C50.9219 34.331 48.5802 32.0173 43.5877 32.1314C38.5952 32.2454 33.619 32.9786 28.6428 33.4348C28.6428 33.6955 28.6265 33.9562 28.6265 34.2169C36.7576 35.4389 45.035 36.1721 52.8083 40.7179ZM54.1581 76.4491C54.3532 76.2699 54.5484 76.0907 54.7435 75.9114C49.7348 69.2149 44.4496 62.665 42.3843 54.0621C38.9204 59.7811 39.0018 62.8279 43.295 67.0968C46.6612 70.4532 50.5153 73.3534 54.1581 76.4491ZM22.4957 37.2638C22.5445 37.4919 22.6095 37.72 22.6583 37.9481C30.6267 39.4308 38.6115 40.9134 46.9051 42.445C45.0513 39.2027 42.1729 38.0947 39.0668 37.7688C34.3508 37.28 29.6185 37.0519 24.8699 36.7912C24.0894 36.7587 23.2925 37.1008 22.4957 37.2638ZM21.4712 61.3127C19.975 60.5632 18.8692 60.0255 17.5357 59.3575C16.8852 60.9705 16.3323 62.388 15.5192 64.441C17.8122 63.2353 19.4384 62.3717 21.4712 61.3127ZM38.9367 45.166C41.8151 47.1701 43.4738 46.9908 44.9862 44.4002C42.8884 44.6772 40.9695 44.9053 38.9367 45.166ZM28.8542 57.4837C28.8542 59.1456 28.8542 60.4165 28.8542 62.2414C29.96 60.9542 30.6918 60.0907 31.5537 59.0805C30.5617 58.4939 29.7974 58.0377 28.8542 57.4837Z" fill="url(#paint0_linear_1076_85)"/>
<path d="M26.1063 106.869C22.0082 104.278 17.9101 101.671 13.8121 99.0805C13.747 99.0316 13.6982 98.9502 13.6332 98.885C12.1696 97.0927 12.4298 87.3005 13.991 85.5408C15.8123 83.4715 17.6174 81.4186 19.8941 79.5123C18.9997 85.0194 18.089 90.5102 17.1946 96.0174C17.3247 96.05 17.4711 96.0988 17.6012 96.1314C18.089 95.2516 18.5769 94.388 19.3249 93.052C21.8781 97.6304 24.2686 101.899 26.6592 106.184C26.4965 106.412 26.3014 106.641 26.1063 106.869Z" fill="url(#paint1_linear_1076_85)"/>
<path d="M10.1367 66.0703C8.41287 70.0459 6.68908 74.0377 4.98156 78.0133C5.03034 78.0785 5.07913 78.1273 5.12792 78.1925C6.07112 77.0194 7.03059 75.83 7.97379 74.6569C8.13641 74.7058 8.3153 74.7383 8.47792 74.7872C8.02258 81.5978 7.56724 88.4247 7.1119 95.2353C6.86796 95.3494 6.6403 95.4471 6.39636 95.5612C5.16044 93.7852 3.6318 92.1396 2.73738 90.1844C-1.01917 81.9889 -1.01917 81.9237 3.42039 74.054C5.09539 71.0886 7.17695 68.3514 9.07962 65.5C9.43738 65.6956 9.79515 65.8748 10.1367 66.0703Z" fill="url(#paint2_linear_1076_85)"/>
<path d="M8.25036 52.7587C9.38871 52.8401 10.153 52.889 11.1613 52.9542C8.64065 57.2719 6.25011 61.4104 3.84332 65.5326C3.61565 65.4837 3.37171 65.4349 3.14404 65.386C2.98142 61.1171 2.78628 56.832 2.6887 52.5632C2.67244 51.9929 3.079 51.2271 3.53434 50.8361C6.34769 48.3921 9.19356 46.0133 12.1045 43.6833C12.5598 43.3249 13.3079 43.3249 13.9096 43.1619C14.0234 43.83 14.121 44.498 14.2673 45.1497C15.1292 49.4023 12.6086 51.0968 9.09599 52.0744C8.88458 52.1558 8.7057 52.3839 8.25036 52.7587Z" fill="url(#paint3_linear_1076_85)"/>
<path d="M9.86035 83.2434C10.0718 80.3595 9.77904 77.2638 10.6735 74.5754C11.2752 72.718 13.5193 71.4145 15.3732 69.5082C13.3567 74.4776 11.6004 78.8605 9.86035 83.2434Z" fill="url(#paint4_linear_1076_85)"/>
<path d="M60.1427 58.722C61.7527 58.5591 63.3626 58.3799 64.9563 58.2169C66.0133 59.1619 67.0704 60.1233 68.4527 61.3615C65.3791 60.6609 62.6471 60.0255 59.915 59.4063C59.9963 59.1782 60.0614 58.9501 60.1427 58.722Z" fill="url(#paint5_linear_1076_85)"/>
<path d="M64.4846 52.3839C65.4278 53.6874 66.2084 54.7627 66.989 55.8381C65.8506 56.3106 64.7285 56.7831 63.8992 57.1253C64.0943 55.5937 64.2407 54.3717 64.4846 52.3839Z" fill="url(#paint6_linear_1076_85)"/>
<path d="M1.17653 130.983L1.09521 130.901V130.347L1.17653 130.266C1.6156 130.266 1.90832 130.233 2.03842 130.184C2.16852 130.136 2.28235 130.054 2.37992 129.907C2.4775 129.777 2.6889 129.321 2.98162 128.555L3.94109 126.144L6.4292 119.626C6.9008 118.355 7.3724 117.068 7.82774 115.797H8.42944L12.3486 126.437L12.869 127.854C13.0154 128.262 13.1942 128.702 13.3894 129.174C13.5845 129.647 13.7309 129.924 13.7959 130.005C13.8773 130.087 13.9748 130.152 14.0724 130.201C14.1862 130.25 14.4302 130.266 14.8367 130.282L14.918 130.364V130.918L14.8367 130.999C14.1862 130.934 13.6008 130.901 13.0804 130.901C12.0722 130.934 11.0476 130.967 10.0394 130.999L9.95808 130.918V130.364L10.0394 130.282C10.7224 130.266 11.1452 130.233 11.3241 130.184C11.503 130.136 11.5843 130.005 11.5843 129.826C11.5843 129.663 11.5355 129.468 11.4542 129.207L10.3321 125.981H5.04692L4.05492 128.685C3.87604 129.174 3.79473 129.533 3.79473 129.761C3.79473 129.94 3.87604 130.07 4.03866 130.152C4.20128 130.233 4.6241 130.282 5.29085 130.282L5.37216 130.364V130.918L5.29085 130.983C4.51026 130.934 3.81099 130.901 3.22555 130.901C2.54255 130.901 1.85954 130.934 1.17653 130.983ZM5.3559 125.036H9.99061L7.68138 118.649L5.3559 125.036Z" fill="white"/>
<path d="M22.4147 128.555C22.7074 128.555 22.9676 128.669 23.179 128.914C23.3904 129.158 23.5042 129.451 23.5042 129.826C23.5042 130.168 23.3904 130.461 23.179 130.722C22.9676 130.967 22.7074 131.097 22.4147 131.097C22.1057 131.097 21.8455 130.983 21.6341 130.738C21.4227 130.494 21.3088 130.201 21.3088 129.842C21.3088 129.484 21.4227 129.191 21.6341 128.946C21.8618 128.685 22.1057 128.555 22.4147 128.555Z" fill="white"/>
<path d="M46.7104 115.977L46.7917 116.058V116.58L46.7104 116.661C46.0437 116.677 45.6209 116.726 45.4582 116.775C45.2956 116.824 45.1818 116.922 45.1167 117.052C45.0517 117.182 45.0192 117.443 45.0029 117.818C44.9866 118.193 44.9704 119.268 44.9541 121.044V125.932C44.9541 126.632 44.9704 127.431 44.9866 128.327C45.0029 129.223 45.0354 129.728 45.1005 129.875C45.1655 130.021 45.2631 130.119 45.4095 130.184C45.5558 130.25 45.9949 130.298 46.7104 130.315L46.7917 130.396V130.918L46.7104 130.999C45.7184 130.934 44.8403 130.901 44.1085 130.901C43.6044 130.901 42.7587 130.934 41.5553 130.999L41.474 130.918V130.413L41.5553 130.331C42.2221 130.315 42.6449 130.266 42.8075 130.217C42.9701 130.168 43.084 130.07 43.149 129.94C43.2141 129.81 43.2629 129.549 43.2629 129.158C43.2791 128.767 43.2954 127.692 43.3116 125.932V118.16L40.1568 125.802C39.3599 127.708 38.6607 129.516 38.0752 131.195H37.7175C37.376 130.282 37.0995 129.549 36.8718 129.011L32.4973 118.502V125.899C32.4973 126.584 32.4973 127.382 32.5136 128.294C32.5298 129.191 32.5624 129.712 32.6274 129.859C32.6925 130.005 32.79 130.103 32.9527 130.168C33.099 130.233 33.5381 130.282 34.2536 130.298L34.3349 130.38V130.885L34.2536 130.983L33.6682 130.95C33.0665 130.918 32.5461 130.901 32.107 130.901C31.9119 130.901 31.1801 130.934 29.9116 130.983L29.8303 130.901V130.396L29.9116 130.298C30.5784 130.282 31.0012 130.25 31.1638 130.184C31.3264 130.136 31.4403 130.038 31.5053 129.891C31.5704 129.761 31.6192 129.5 31.6192 129.142C31.6354 128.767 31.6354 127.692 31.6679 125.883V121.044C31.6679 120.408 31.6679 119.626 31.6517 118.698C31.6354 117.769 31.6029 117.248 31.5378 117.101C31.4728 116.954 31.3752 116.857 31.2289 116.775C31.0825 116.71 30.6434 116.661 29.9279 116.645L29.8466 116.563V116.058L29.9279 115.96C30.3507 115.993 30.9199 116.009 31.6354 116.009C32.3022 116.009 32.8876 115.993 33.3917 115.96C33.9121 117.329 34.4 118.567 34.8716 119.675L38.3517 127.92L41.4903 120.376C42.3359 118.339 42.9051 116.873 43.1978 115.977C43.7832 116.009 44.3687 116.026 44.9378 116.026C45.4095 116.026 46.0112 116.009 46.7104 115.977Z" fill="white"/>
<path d="M54.2562 128.555C54.5489 128.555 54.8091 128.669 55.0205 128.914C55.2319 129.158 55.3458 129.451 55.3458 129.826C55.3458 130.168 55.2319 130.461 55.0205 130.722C54.8091 130.967 54.5489 131.097 54.2562 131.097C53.9472 131.097 53.687 130.983 53.4756 130.738C53.2642 130.494 53.1504 130.201 53.1504 129.842C53.1504 129.484 53.2642 129.191 53.4756 128.946C53.687 128.685 53.9472 128.555 54.2562 128.555Z" fill="white"/>
<path d="M75.039 125.133V125.443L75.0065 125.573L74.5511 125.883C74.4373 125.964 74.3722 126.013 74.356 126.062C74.3397 126.111 74.3072 126.307 74.2909 126.698C74.2584 127.072 74.2421 127.529 74.2421 128.083C74.2421 128.702 74.2747 129.37 74.3397 130.087L74.2909 130.201C72.6159 130.934 70.8921 131.309 69.1358 131.309C67.7861 131.309 66.5501 131.015 65.4606 130.413C64.371 129.826 63.4929 128.946 62.8586 127.773C62.2244 126.616 61.8992 125.231 61.8992 123.618C61.8992 121.174 62.6147 119.235 64.062 117.802C65.5094 116.368 67.3958 115.635 69.7213 115.635C71.4288 115.635 72.9737 115.977 74.3397 116.645L74.4048 116.759C74.2909 117.231 74.1608 118.225 74.0145 119.74L73.9332 119.822H73.5103L73.429 119.74L73.3802 118.616C73.364 118.241 73.3477 118.03 73.3152 117.964C73.2989 117.899 73.2339 117.818 73.12 117.72C73.0062 117.622 72.7298 117.459 72.2744 117.231C71.8191 117.003 71.3637 116.84 70.9084 116.742C70.4531 116.645 69.9652 116.596 69.4285 116.596C68.3065 116.596 67.3145 116.857 66.4526 117.394C65.5907 117.932 64.9402 118.714 64.5011 119.74C64.062 120.767 63.8506 121.907 63.8506 123.162C63.8506 124.465 64.0783 125.671 64.5499 126.795C65.0215 127.92 65.6882 128.783 66.5827 129.419C67.4608 130.054 68.4853 130.364 69.6562 130.364C70.1603 130.364 70.6807 130.298 71.2174 130.184C71.7378 130.07 72.1768 129.907 72.5183 129.696C72.5671 129.468 72.5997 129.011 72.5997 128.327V127.154C72.5997 126.6 72.5671 126.241 72.5021 126.111C72.437 125.981 72.2907 125.883 72.0467 125.818C71.8028 125.769 71.2824 125.72 70.4856 125.704L70.4043 125.606V125.133L70.4856 125.036L71.0385 125.052C71.998 125.085 72.7785 125.101 73.3802 125.101C73.7217 125.101 74.2421 125.085 74.9089 125.036L75.039 125.133Z" fill="white"/>
<path d="M82.6659 128.555C82.9586 128.555 83.2188 128.669 83.4302 128.914C83.6416 129.158 83.7554 129.451 83.7554 129.826C83.7554 130.168 83.6416 130.461 83.4302 130.722C83.2188 130.983 82.9586 131.097 82.6659 131.097C82.3569 131.097 82.0967 130.983 81.8853 130.738C81.6739 130.494 81.5601 130.201 81.5601 129.842C81.5601 129.484 81.6739 129.191 81.8853 128.946C82.0967 128.702 82.3569 128.555 82.6659 128.555Z" fill="white"/>
<path d="M52.1743 11.2597C53.8819 10.6405 54.8901 8.62015 54.451 6.51831C53.9794 4.23725 51.9955 2.72198 50.0277 3.12931C48.06 3.53664 46.8404 5.71994 47.312 8.001C47.4583 8.71791 47.7673 9.36964 48.1576 9.90732L44.027 12.0254L38.8394 7.2841C39.685 6.33909 40.0753 4.92157 39.7826 3.45517C39.311 1.17411 37.327 -0.341163 35.3593 0.0661699C33.3916 0.473502 32.1719 2.6568 32.6435 4.93786C32.8549 5.93176 33.3428 6.77901 33.9933 7.39815L29.196 12.612L22.7887 9.76068C23.1627 8.92972 23.2928 7.93583 23.0814 6.92565C22.6098 4.64459 20.6258 3.12931 18.6581 3.53664C16.6904 3.94397 15.4707 6.12728 15.9423 8.40834C16.2513 9.87473 17.1782 11.0153 18.3166 11.5529L15.5683 18.1517L10.9824 18.3472C11.1938 17.6466 11.2263 16.8646 11.0637 16.0662C10.5921 13.7851 8.60809 12.2698 6.64037 12.6772C4.67265 13.0845 3.45299 15.2678 3.92459 17.5489C4.37993 19.7648 6.25007 21.2475 8.16901 20.9705L13.7144 29.2638C13.7144 29.2638 30.0741 13.1986 51.2962 21.9806L52.1743 11.2597ZM48.8731 17.6466C46.5476 16.946 29.7489 12.5305 13.6331 25.0764L13.877 25.4674L10.6734 20.8075L16.9343 20.498L20.5933 11.6996C20.7396 11.6507 20.886 11.6018 21.0324 11.5366L29.7326 15.3982L36.2049 8.35946C36.3676 8.37575 36.5302 8.35946 36.6928 8.34316L43.7831 14.8116L49.8976 11.7159L48.8731 17.6466Z" fill="#B59200"/>
<path d="M22.4147 31.0071C22.3822 30.9582 22.3659 30.9257 22.3334 30.8768C22.9351 30.4532 23.0164 30.2902 22.8213 29.9644C22.187 28.889 21.8781 28.335 21.2438 27.2597C21.0487 29.1497 21.0162 30.0784 21.065 31.9033C20.9836 31.9684 20.9349 32.001 20.8535 32.0499C19.1785 31.4145 18.2841 31.1375 16.4628 30.7138C17.2108 31.61 17.5849 32.0662 18.3492 32.9623C18.6582 33.3371 18.8858 33.3045 19.5526 32.8157C19.5851 32.8646 19.6176 32.8971 19.6501 32.946C18.9183 33.5326 18.5606 33.8259 17.8613 34.4613C17.8125 34.4124 17.7963 34.3961 17.7475 34.3472C18.3004 33.777 18.3654 33.6466 18.089 33.3371C17.3247 32.4409 16.9344 31.9847 16.1538 31.0886C15.9261 30.8279 15.731 30.8768 15.0967 31.4145C15.048 31.3656 15.0317 31.3493 14.9829 31.3004C15.8448 30.5183 16.2839 30.1436 17.1946 29.443C18.6419 29.834 19.3412 30.0621 20.6909 30.5835C20.7072 29.1334 20.756 28.4002 20.9349 26.9175C21.9106 26.3472 22.4147 26.0865 23.423 25.5977C23.4555 25.6466 23.4717 25.6792 23.488 25.7444C22.7725 26.1191 22.6749 26.2984 22.8863 26.722C23.3742 27.6833 23.6344 28.1558 24.1222 29.1171C24.3336 29.5244 24.4637 29.5896 25.1955 29.2963C25.2281 29.3452 25.2443 29.3778 25.2606 29.443C24.106 30.0132 23.5368 30.3228 22.4147 31.0071Z" fill="#B59200"/>
<path d="M25.667 29.2638C25.6345 29.1986 25.6345 29.1823 25.602 29.1171C26.2524 28.7587 26.3825 28.6283 26.2362 28.2699C25.7646 27.1782 25.5369 26.6405 25.0653 25.5489C24.919 25.223 24.675 25.223 23.9432 25.5326C23.9107 25.4674 23.9107 25.4511 23.8782 25.386C25.293 24.7179 26.0085 24.4409 27.4884 23.9359C27.5046 24.001 27.5209 24.0336 27.5372 24.0825C26.7728 24.3595 26.594 24.5387 26.7078 24.8809C27.1143 25.9888 27.3257 26.5428 27.7323 27.667C27.8787 28.0581 28.0738 28.0418 28.7893 27.8299C28.8056 27.8951 28.8219 27.9277 28.8381 27.9766C27.5372 28.4165 26.9029 28.6772 25.667 29.2638Z" fill="#B59200"/>
<path d="M33.1152 26.8686C33.0989 26.8034 33.0989 26.7709 33.0826 26.7057C33.7006 26.5753 33.8144 26.5265 33.7982 26.445C33.7819 26.3798 33.7169 26.3309 33.5054 26.2006C32.7086 25.7607 32.2858 25.5489 31.4402 25.1578C31.3426 25.2393 31.2938 25.2882 31.1962 25.3696C31.3101 25.8584 31.3588 26.0865 31.4727 26.5753C31.5377 26.8686 31.7003 26.9012 32.3996 26.8197C32.4159 26.8849 32.4159 26.9175 32.4321 26.9664C31.1474 27.2271 30.5132 27.4063 29.2773 27.7973C29.261 27.7322 29.2448 27.6996 29.2285 27.6507C29.9115 27.39 30.0091 27.2922 29.9115 26.9338C29.5863 25.7933 29.4074 25.223 29.0821 24.0825C28.9683 23.7077 28.7569 23.6751 28.0251 23.8869C28.0088 23.8218 27.9926 23.7892 27.9763 23.7403C29.3911 23.2841 30.1229 23.0886 31.5865 22.7953C31.6028 22.8605 31.6028 22.8931 31.619 22.9419C30.8222 23.1375 30.7084 23.3004 30.7897 23.6751C30.9198 24.2291 30.9848 24.4898 31.1149 25.0438C31.8467 24.3106 32.237 23.9521 33.0501 23.2678C33.3428 23.0234 33.4404 22.9419 33.4241 22.8442C33.4079 22.7138 33.2615 22.6812 32.8712 22.7301C32.7249 22.7464 32.6436 22.7627 32.4809 22.779C32.4647 22.7138 32.4647 22.6812 32.4484 22.6161C33.7006 22.388 34.3348 22.3065 35.6195 22.1924C35.6195 22.2576 35.6358 22.2902 35.6358 22.3554C34.5625 22.5346 34.0909 22.6487 32.3834 24.2454C33.8307 24.946 34.5137 25.3208 35.7984 26.168C35.9285 26.2495 36.0423 26.2658 36.2863 26.2658C36.2863 26.3309 36.2863 26.3635 36.3025 26.4287C35.0341 26.559 34.3836 26.6405 33.1152 26.8686Z" fill="#B59200"/>
<path d="M39.994 26.3798C39.994 26.3147 39.994 26.2821 39.994 26.2169C40.1241 26.2169 40.1891 26.2169 40.303 26.2169C40.6282 26.2169 40.7583 26.168 40.7746 26.0377C40.7908 25.9073 40.677 25.6629 40.368 25.1578C39.4573 25.109 39.002 25.109 38.075 25.1252C38.0263 25.2067 37.9937 25.2556 37.9449 25.3371C37.8311 25.5326 37.6522 25.8096 37.6522 25.9562C37.6522 26.1191 37.8799 26.1843 38.4491 26.2006C38.4491 26.2658 38.4491 26.2984 38.4491 26.3635C37.6522 26.3635 37.2619 26.3798 36.4814 26.445C36.4814 26.3798 36.4814 26.3472 36.4651 26.2821C36.9042 26.2006 37.0505 26.0866 37.4083 25.4674C38.2377 24.0499 38.7093 23.3656 39.7338 22.0132C39.8639 22.0132 39.9289 22.0132 40.0428 22.0295C40.986 23.3819 41.4088 24.0825 42.1568 25.4837C42.5959 26.2984 42.7423 26.4613 43.1326 26.5102C43.1163 26.5754 43.1163 26.6079 43.1163 26.6731C41.8966 26.4939 41.2624 26.4287 39.994 26.3798ZM39.2297 23.333C38.8231 23.9358 38.628 24.2454 38.2377 24.8646C39.0345 24.8483 39.4411 24.8646 40.2379 24.8971C39.8476 24.278 39.6525 23.9521 39.2297 23.333Z" fill="#B59200"/>
<path d="M51.0197 24.4898C50.6457 24.3758 50.4018 24.3758 50.2066 24.4572C49.1333 24.9134 48.6129 25.1578 47.621 25.6955C47.5071 26.1354 47.4421 26.3472 47.312 26.7709C47.1819 27.2434 47.2795 27.3574 48.0275 27.6344C48.0112 27.6996 47.995 27.7322 47.9787 27.7811C46.6452 27.3574 45.9785 27.1945 44.6287 26.9338C44.645 26.8686 44.645 26.836 44.6612 26.7709C45.4744 26.8849 45.6045 26.7872 45.7183 26.331C45.7996 25.9888 45.8321 25.8259 45.9134 25.5C45.3605 24.5224 45.0678 24.0499 44.4173 23.0886C44.2384 22.8442 43.9294 22.6487 43.5554 22.5835C43.5717 22.5183 43.5717 22.4857 43.5717 22.4206C45.0515 22.6324 45.7996 22.779 47.2795 23.1375C47.2632 23.2026 47.2632 23.2352 47.2469 23.2841C47.1331 23.2515 47.068 23.2515 46.9542 23.2189C46.5151 23.1375 46.3525 23.1212 46.32 23.2678C46.3037 23.3167 46.4013 23.5122 46.4989 23.6914C46.8892 24.3758 47.068 24.7342 47.4095 25.4348C47.9787 25.1252 48.2714 24.9786 48.8569 24.6853C49.2146 24.5061 49.4423 24.3269 49.4911 24.2128C49.5399 24.0336 49.3935 23.9195 48.6617 23.6751C48.678 23.61 48.6943 23.5774 48.7105 23.5285C49.67 23.8055 50.1416 23.9684 51.1011 24.3269C51.0523 24.3921 51.0523 24.4246 51.0197 24.4898Z" fill="#B59200"/>
<defs>
<linearGradient id="paint0_linear_1076_85" x1="11.9775" y1="69.2427" x2="89.9457" y2="69.2427" gradientUnits="userSpaceOnUse">
<stop stop-color="#8F8C91"/>
<stop offset="0.5012" stop-color="#D6D7DC"/>
<stop offset="0.9641" stop-color="#77767B"/>
</linearGradient>
<linearGradient id="paint1_linear_1076_85" x1="12.6793" y1="93.1924" x2="26.6822" y2="93.1924" gradientUnits="userSpaceOnUse">
<stop stop-color="#8F8C91"/>
<stop offset="0.5012" stop-color="#D6D7DC"/>
<stop offset="0.9641" stop-color="#77767B"/>
</linearGradient>
<linearGradient id="paint2_linear_1076_85" x1="0.00208978" y1="80.5306" x2="10.1448" y2="80.5306" gradientUnits="userSpaceOnUse">
<stop stop-color="#8F8C91"/>
<stop offset="0.5012" stop-color="#D6D7DC"/>
<stop offset="0.9641" stop-color="#77767B"/>
</linearGradient>
<linearGradient id="paint3_linear_1076_85" x1="2.69801" y1="54.3507" x2="14.4353" y2="54.3507" gradientUnits="userSpaceOnUse">
<stop stop-color="#8F8C91"/>
<stop offset="0.5012" stop-color="#D6D7DC"/>
<stop offset="0.9641" stop-color="#77767B"/>
</linearGradient>
<linearGradient id="paint4_linear_1076_85" x1="9.85354" y1="76.3653" x2="15.3567" y2="76.3653" gradientUnits="userSpaceOnUse">
<stop stop-color="#8F8C91"/>
<stop offset="0.5012" stop-color="#D6D7DC"/>
<stop offset="0.9641" stop-color="#77767B"/>
</linearGradient>
<linearGradient id="paint5_linear_1076_85" x1="59.9142" y1="59.7801" x2="68.4529" y2="59.7801" gradientUnits="userSpaceOnUse">
<stop stop-color="#8F8C91"/>
<stop offset="0.5012" stop-color="#D6D7DC"/>
<stop offset="0.9641" stop-color="#77767B"/>
</linearGradient>
<linearGradient id="paint6_linear_1076_85" x1="63.9016" y1="54.7615" x2="66.9937" y2="54.7615" gradientUnits="userSpaceOnUse">
<stop stop-color="#8F8C91"/>
<stop offset="0.5012" stop-color="#D6D7DC"/>
<stop offset="0.9641" stop-color="#77767B"/>
</linearGradient>
</defs>
</svg>
